<svg width="734" height="733" viewBox="0 0 734 733" fill="none" xmlns="http://www.w3.org/2000/svg">
<g clip-path="url(#clip0_308_505)">
<path d="M334.547 519.432C307.368 507.269 288.236 480.26 287.521 448.779V233.78H209.025V446.812C209.025 458.438 210.276 469.707 212.601 480.618C220.289 515.855 239.779 546.799 266.6 568.978C273.037 574.344 280.011 579.174 287.342 583.467C306.832 594.914 329.182 602.248 352.785 604.394V525.335C346.348 524.261 340.268 522.294 334.368 519.611H334.547V519.432ZM728.993 303.717C701.1 304.075 673.921 307.474 647.815 313.913C614.379 321.962 582.73 334.662 553.584 351.117V449.852C581.836 426.6 614.736 408.892 650.497 397.981C642.272 470.959 606.332 535.709 553.584 581.141V681.307C656.219 620.671 726.669 511.562 733.464 385.46C733.821 378.663 734 371.866 734 365.069C734 344.142 732.212 323.751 728.815 303.717H728.993ZM180.594 350.939C151.449 334.483 119.8 321.783 86.3635 313.734C60.2577 307.474 33.0792 303.896 5.18538 303.539C1.78806 323.393 0 343.963 0 364.89C0 371.687 0 378.484 0.536419 385.281C7.50987 511.383 77.9596 620.492 180.416 681.128V580.962C127.668 535.351 91.7277 470.78 83.5026 397.802C119.264 408.713 152.164 426.6 180.416 449.673V350.939H180.594Z" fill="#303030"/>
<path d="M367.268 104.638L447.016 205.34V278.139C479.38 293.522 506.558 317.848 525.512 348.077V205.519L435.214 88.1818L367.268 0L299.5 88.0029L209.203 205.34H287.699L367.447 104.638H367.268V104.638Z" fill="#303030"/>
<path d="M445.585 309.441C443.618 308.189 441.473 307.116 439.327 306.043C438.612 305.685 437.896 305.327 437.002 304.969C434.32 303.539 431.459 302.286 428.598 301.034H428.241C425.559 299.782 422.698 298.709 420.016 297.636C419.122 297.278 418.228 297.099 417.334 296.742C415.188 296.026 413.042 295.311 410.897 294.774C410.003 294.595 409.109 294.237 408.036 294.059C404.996 293.343 401.956 292.449 398.917 291.912H398.559C395.698 291.197 392.658 290.66 389.619 290.302C388.725 290.302 387.652 290.123 386.758 289.945C384.433 289.587 382.109 289.408 379.784 289.229C378.89 289.229 377.818 289.229 376.923 289.05C373.705 288.871 370.486 288.693 367.268 288.693C349.387 288.693 332.043 291.733 315.951 297.278V385.997C326.321 377.232 339.017 370.972 353.142 368.468C357.791 367.573 362.44 367.215 367.268 367.215C372.096 367.215 376.923 367.752 381.394 368.468C407.142 373.118 428.599 390.111 439.327 413.006C443.618 422.128 446.3 432.323 446.837 443.055V449.316C446.122 480.797 426.989 507.806 399.811 519.969C393.91 522.652 387.831 524.619 381.394 525.692V604.752C405.175 602.605 427.347 595.272 446.837 583.824V639.989L444.691 640.525C424.486 646.249 403.208 649.827 381.394 650.9C376.923 650.9 372.275 651.257 367.804 651.257H366.732C362.083 651.257 357.612 651.257 353.142 650.9C331.328 649.827 310.05 646.249 289.845 640.525L287.699 639.989C286.447 639.631 285.196 639.273 283.765 638.916C258.196 631.045 234.057 619.777 212.243 605.467C211.17 604.931 210.276 604.215 209.203 603.5V697.226C231.912 708.137 256.05 716.723 281.083 722.805C307.189 729.065 334.368 732.642 362.261 733H372.453C400.347 732.642 427.526 729.244 453.631 722.805C478.664 716.723 502.803 708.137 525.512 697.226V447.348C525.512 388.501 493.326 337.166 445.764 309.978V309.441H445.585Z" fill="#303030"/>
</g>
<defs>
<clipPath id="clip0_308_505">
<rect width="734" height="733" fill="white"/>
</clipPath>
</defs>
</svg>
