<svg width="735" height="218" viewBox="0 0 735 218" fill="none" xmlns="http://www.w3.org/2000/svg">
<path d="M212.08 217.9L185.06 118.19L158.99 168.08C156.63 174.56 149.76 178.19 143.07 176.51C127.08 172.49 96.66 168.14 65.92 181.53C62.65 182.95 59.55 179.24 61.54 176.28C80.32 148.49 136.65 65.5 176.25 46.95L169.97 0.440002C169.97 0.440002 55.66 58.26 0.980011 217.89H212.07L212.08 217.9Z" fill="#010201"/>
<path d="M283.02 99.24L263.07 99.26C263.23 93.13 263.32 86.99 263.32 80.86C283.74 80.82 304.16 80.8 324.57 80.77C324.57 86.92 324.51 93.07 324.39 99.21C317.74 99.21 311.09 99.21 304.44 99.22C303.98 119.95 302.76 140.69 300.76 161.42C293.48 161.41 286.2 161.4 278.92 161.39C281.14 140.67 282.5 119.95 283.01 99.24H283.02Z" fill="#010201"/>
<path d="M332.43 80.76C339.56 80.76 346.7 80.74 353.83 80.74C353.83 90.82 353.7 100.89 353.43 110.97C361.08 110.97 368.73 110.97 376.38 110.97C376.61 100.89 376.72 90.81 376.72 80.73C383.85 80.73 390.99 80.72 398.12 80.71C398.12 107.65 397.46 134.6 396.13 161.54L374.29 161.52C374.93 150.82 375.45 140.13 375.83 129.43C368.15 129.43 360.46 129.43 352.78 129.43C352.32 140.12 351.71 150.81 350.94 161.5C343.66 161.5 336.38 161.49 329.1 161.48C331.31 134.58 332.42 107.67 332.42 80.77L332.43 80.76Z" fill="#010201"/>
<path d="M410.87 80.69C429.54 80.68 448.21 80.67 466.89 80.67C466.89 86.68 466.89 92.69 466.86 98.7C455.31 98.7 443.76 98.7 432.21 98.7C432.18 102.9 432.14 107.1 432.09 111.29C441.26 111.29 450.44 111.29 459.61 111.29C459.57 117.22 459.52 123.15 459.45 129.09C450.24 129.09 441.02 129.09 431.81 129.09C431.72 133.9 431.61 138.72 431.49 143.53C443.17 143.53 454.85 143.53 466.52 143.53C466.45 149.54 466.37 155.55 466.28 161.56C447.23 161.56 428.18 161.55 409.13 161.54C410.29 134.59 410.86 107.64 410.86 80.69H410.87Z" fill="#010201"/>
<path d="M502.82 145.85C502.78 129.36 502.75 112.87 502.74 96.38C502.74 85.75 507.75 80.66 518.22 80.66C528.69 80.66 539.17 80.66 549.64 80.66C560.12 80.66 565.11 85.75 565.18 96.38C565.2 100.04 565.24 103.7 565.28 107.36C558.21 107.36 551.13 107.36 544.06 107.36C544.04 105.09 544.03 102.81 544.01 100.54C544.01 98.92 543.54 98.46 541.95 98.46C536.71 98.46 531.47 98.46 526.22 98.46C524.62 98.46 524.17 98.92 524.18 100.54C524.23 114.25 524.32 127.97 524.46 141.68C524.48 143.3 524.94 143.76 526.56 143.76C531.86 143.76 537.16 143.76 542.47 143.76C544.08 143.76 544.54 143.3 544.51 141.68C544.45 138.29 544.39 134.9 544.34 131.51C540.4 131.51 536.46 131.51 532.52 131.51C532.46 125.81 532.4 120.11 532.36 114.41C543.37 114.41 554.37 114.41 565.38 114.41C565.53 124.88 565.75 135.36 566.04 145.83C566.35 156.46 561.43 161.55 550.73 161.55C540.04 161.55 529.36 161.55 518.67 161.55C507.98 161.55 502.85 156.46 502.83 145.83L502.82 145.85Z" fill="#010201"/>
<path d="M594.3 136.47C585.14 117.88 576.44 99.28 567.98 80.68C575.72 80.68 583.46 80.68 591.21 80.69C595.54 92.13 599.98 103.56 604.58 114.99C608.66 103.56 612.84 92.13 617.17 80.71C624.84 80.71 632.5 80.72 640.17 80.73C631.71 99.29 623.7 117.87 615.92 136.46C616.26 144.81 616.68 153.16 617.17 161.51C609.89 161.51 602.61 161.52 595.33 161.53C594.93 153.18 594.59 144.82 594.31 136.47H594.3Z" fill="#010201"/>
<path d="M646.19 80.74C654.24 80.74 662.28 80.76 670.33 80.77C676.29 94.92 682.57 109.05 689.27 123.18C694.55 109.05 700.12 94.93 706.08 80.82C714.05 80.83 722.02 80.85 729.99 80.86C729.99 107.69 731.56 134.53 734.7 161.36C727.65 161.37 720.61 161.38 713.56 161.39C711.91 145.93 710.74 130.47 710.04 115C705.6 127.2 701.42 139.41 697.43 151.62C693.04 151.62 688.64 151.62 684.25 151.63C678.21 139.42 672.5 127.21 667.07 114.99C667.63 130.48 668.57 145.96 669.88 161.45C662.99 161.45 656.1 161.47 649.2 161.47C647.19 134.55 646.18 107.64 646.18 80.73L646.19 80.74Z" fill="#010201"/>
</svg>
